<?xml version="1.0" encoding="utf-8"?>
<!-- Generator: Adobe Illustrator 23.0.1, SVG Export Plug-In . SVG Version: 6.00 Build 0)  -->
<svg version="1.1" id="Layer_1" xmlns="http://www.w3.org/2000/svg" xmlns:xlink="http://www.w3.org/1999/xlink" x="0px" y="0px"
	 viewBox="0 0 133 54.8" style="enable-background:new 0 0 133 54.8;" xml:space="preserve">
<style type="text/css">
	.st0{fill:#FFFFFF;}
</style>
<g>
	<path class="st0" d="M35.9,49c1.7,1.7,3.5,3.1,5.6,4.3L75.2,8.8C72.8,6.4,70,4.4,66.7,3c-3.4-1.5-7-2.3-10.9-2.3S48.2,1.5,44.9,3
		c-3.4,1.5-6.4,3.5-8.9,6.1s-4.6,5.5-6.1,8.9c-1.5,3.4-2.2,7.1-2.2,10.9c0,3.9,0.8,7.6,2.2,11C31.4,43.4,33.3,46.4,35.9,49z"/>
	<polygon class="st0" points="78.8,14.8 83.4,14.8 83.4,54.1 105.4,54.1 105.4,1 89.2,1 	"/>
</g>
</svg>
